<mxfile host="65bd71144e">
    <diagram id="eFBXmFvJljYkLnQhQfpa" name="Page-1">
        <mxGraphModel dx="746" dy="1519" grid="1" gridSize="10" guides="1" tooltips="1" connect="1" arrows="1" fold="1" page="1" pageScale="1" pageWidth="850" pageHeight="1100" background="#ffffff" math="0" shadow="0">
            <root>
                <mxCell id="0"/>
                <mxCell id="1" parent="0"/>
                <mxCell id="67" value="" style="rounded=0;whiteSpace=wrap;html=1;labelBackgroundColor=none;strokeColor=#FFFF99;fontColor=#000000;fillColor=#FFFF99;strokeWidth=3;" vertex="1" parent="1">
                    <mxGeometry x="510" y="55" width="171.55" height="210" as="geometry"/>
                </mxCell>
                <mxCell id="68" value="&lt;b&gt;ip: 10.44.0.0/24&lt;/b&gt;" style="text;html=1;strokeColor=none;fillColor=none;align=center;verticalAlign=middle;whiteSpace=wrap;rounded=0;labelBackgroundColor=none;strokeWidth=3;fontColor=#000000;" vertex="1" parent="1">
                    <mxGeometry x="510" y="55" width="90" height="30" as="geometry"/>
                </mxCell>
                <mxCell id="65" value="" style="rounded=0;whiteSpace=wrap;html=1;labelBackgroundColor=none;strokeColor=#FF99FF;fontColor=#000000;fillColor=#FF99FF;strokeWidth=3;" vertex="1" parent="1">
                    <mxGeometry x="49.999999999999986" y="55" width="171.55" height="210" as="geometry"/>
                </mxCell>
                <mxCell id="4" value="ST1" style="points=[];aspect=fixed;html=1;align=center;shadow=0;dashed=0;image;image=img/lib/allied_telesis/computer_and_terminals/Personal_Computer.svg;fontColor=#000000;labelBackgroundColor=none;strokeColor=#000000;" vertex="1" parent="1">
                    <mxGeometry x="622" y="104" width="36.89" height="50" as="geometry"/>
                </mxCell>
                <mxCell id="5" value="ST2" style="points=[];aspect=fixed;html=1;align=center;shadow=0;dashed=0;image;image=img/lib/allied_telesis/computer_and_terminals/Personal_Computer.svg;fontColor=#000000;labelBackgroundColor=none;strokeColor=#000000;" vertex="1" parent="1">
                    <mxGeometry x="616" y="184" width="36.89" height="50" as="geometry"/>
                </mxCell>
                <mxCell id="9" value="&lt;span style=&quot;&quot;&gt;SRV1&lt;/span&gt;" style="aspect=fixed;perimeter=ellipsePerimeter;html=1;align=center;shadow=0;dashed=0;spacingTop=3;image;image=img/lib/active_directory/generic_server.svg;fontColor=#000000;labelBackgroundColor=none;strokeColor=#000000;" vertex="1" parent="1">
                    <mxGeometry x="100" y="70" width="28.000000000000004" height="50" as="geometry"/>
                </mxCell>
                <mxCell id="35" value="" style="edgeStyle=none;html=1;strokeColor=#000000;fontColor=#000000;" edge="1" parent="1" source="11" target="19">
                    <mxGeometry relative="1" as="geometry"/>
                </mxCell>
                <mxCell id="11" value="&lt;font color=&quot;#000000&quot;&gt;R1&lt;/font&gt;" style="image;html=1;image=img/lib/clip_art/networking/Router_Icon_128x128.png;labelBackgroundColor=none;strokeColor=#000000;" vertex="1" parent="1">
                    <mxGeometry x="330" y="30" width="55" height="60" as="geometry"/>
                </mxCell>
                <mxCell id="42" style="edgeStyle=none;html=1;entryX=1;entryY=1;entryDx=0;entryDy=0;strokeColor=#000000;fontColor=#000000;" edge="1" parent="1" source="14" target="9">
                    <mxGeometry relative="1" as="geometry">
                        <Array as="points">
                            <mxPoint x="130" y="120"/>
                        </Array>
                    </mxGeometry>
                </mxCell>
                <mxCell id="14" value="Switch" style="aspect=fixed;perimeter=ellipsePerimeter;html=1;align=center;shadow=0;dashed=0;spacingTop=3;image;image=img/lib/active_directory/switch.svg;fontColor=#000000;labelBackgroundColor=none;strokeColor=#000000;" vertex="1" parent="1">
                    <mxGeometry x="150" y="135" width="50" height="50" as="geometry"/>
                </mxCell>
                <mxCell id="46" value="" style="edgeStyle=none;html=1;strokeColor=#000000;fontColor=#000000;exitX=0;exitY=0.5;exitDx=0;exitDy=0;entryX=1;entryY=0.5;entryDx=0;entryDy=0;" edge="1" parent="1" source="19" target="20">
                    <mxGeometry relative="1" as="geometry">
                        <mxPoint x="278.5" y="179" as="sourcePoint"/>
                        <mxPoint x="279" y="237" as="targetPoint"/>
                    </mxGeometry>
                </mxCell>
                <mxCell id="62" value="" style="edgeStyle=none;html=1;strokeColor=#000000;fontColor=#000000;" edge="1" parent="1" source="19" target="21">
                    <mxGeometry relative="1" as="geometry"/>
                </mxCell>
                <mxCell id="19" value="&lt;font color=&quot;#000000&quot;&gt;R2&lt;/font&gt;" style="image;html=1;image=img/lib/clip_art/networking/Router_Icon_128x128.png;labelBackgroundColor=none;strokeColor=#000000;" vertex="1" parent="1">
                    <mxGeometry x="330" y="130" width="55" height="60" as="geometry"/>
                </mxCell>
                <mxCell id="40" value="" style="edgeStyle=none;html=1;strokeColor=#000000;fontColor=#000000;" edge="1" parent="1" source="20" target="14">
                    <mxGeometry relative="1" as="geometry"/>
                </mxCell>
                <mxCell id="43" value="" style="edgeStyle=none;html=1;strokeColor=#000000;fontColor=#000000;" edge="1" parent="1" source="20" target="14">
                    <mxGeometry relative="1" as="geometry"/>
                </mxCell>
                <mxCell id="20" value="&lt;font color=&quot;#000000&quot;&gt;R3&lt;/font&gt;" style="image;html=1;image=img/lib/clip_art/networking/Router_Icon_128x128.png;labelBackgroundColor=none;strokeColor=#000000;" vertex="1" parent="1">
                    <mxGeometry x="230" y="130" width="55" height="60" as="geometry"/>
                </mxCell>
                <mxCell id="63" value="" style="edgeStyle=none;html=1;strokeColor=#000000;fontColor=#000000;" edge="1" parent="1" source="21" target="51">
                    <mxGeometry relative="1" as="geometry"/>
                </mxCell>
                <mxCell id="21" value="&lt;font color=&quot;#000000&quot;&gt;R4&lt;/font&gt;" style="image;html=1;image=img/lib/clip_art/networking/Router_Icon_128x128.png;labelBackgroundColor=none;strokeColor=#000000;" vertex="1" parent="1">
                    <mxGeometry x="425" y="130" width="55" height="60" as="geometry"/>
                </mxCell>
                <mxCell id="34" value="" style="edgeStyle=none;html=1;strokeColor=#000000;fontColor=#000000;" edge="1" parent="1" source="25" target="11">
                    <mxGeometry relative="1" as="geometry"/>
                </mxCell>
                <mxCell id="25" value="Internet" style="outlineConnect=0;dashed=0;verticalLabelPosition=bottom;verticalAlign=top;align=center;html=1;shape=mxgraph.aws3.internet_3;fillColor=#D2D3D3;gradientColor=none;labelBackgroundColor=none;fontColor=#000000;" vertex="1" parent="1">
                    <mxGeometry x="317.75" y="-54" width="79.5" height="54" as="geometry"/>
                </mxCell>
                <mxCell id="28" value="&lt;span style=&quot;&quot;&gt;SRV2&lt;/span&gt;" style="aspect=fixed;perimeter=ellipsePerimeter;html=1;align=center;shadow=0;dashed=0;spacingTop=3;image;image=img/lib/active_directory/generic_server.svg;fontColor=#000000;labelBackgroundColor=none;strokeColor=#000000;" vertex="1" parent="1">
                    <mxGeometry x="90" y="184" width="28.000000000000004" height="50" as="geometry"/>
                </mxCell>
                <mxCell id="32" value="" style="rounded=0;whiteSpace=wrap;html=1;labelBackgroundColor=none;strokeColor=#FF99FF;fontColor=#000000;fillColor=none;strokeWidth=3;" vertex="1" parent="1">
                    <mxGeometry x="820" y="-160" width="250" height="180" as="geometry"/>
                </mxCell>
                <mxCell id="41" style="edgeStyle=none;html=1;entryX=1;entryY=0.25;entryDx=0;entryDy=0;strokeColor=#000000;fontColor=#000000;" edge="1" parent="1" source="14" target="28">
                    <mxGeometry relative="1" as="geometry"/>
                </mxCell>
                <mxCell id="50" style="edgeStyle=none;html=1;strokeColor=#000000;fontColor=#000000;" edge="1" parent="1" target="4">
                    <mxGeometry relative="1" as="geometry">
                        <mxPoint x="572.1558734900357" y="152.55843373599032" as="sourcePoint"/>
                        <mxPoint x="653" y="137" as="targetPoint"/>
                    </mxGeometry>
                </mxCell>
                <mxCell id="51" value="Switch" style="aspect=fixed;perimeter=ellipsePerimeter;html=1;align=center;shadow=0;dashed=0;spacingTop=3;image;image=img/lib/active_directory/switch.svg;fontColor=#000000;labelBackgroundColor=none;strokeColor=#000000;" vertex="1" parent="1">
                    <mxGeometry x="522" y="134" width="50" height="50" as="geometry"/>
                </mxCell>
                <mxCell id="53" style="edgeStyle=none;html=1;strokeColor=#000000;fontColor=#000000;entryX=0;entryY=0.56;entryDx=0;entryDy=0;entryPerimeter=0;" edge="1" parent="1" target="5">
                    <mxGeometry relative="1" as="geometry">
                        <mxPoint x="569.5421996838677" y="171.68596203605534" as="sourcePoint"/>
                        <mxPoint x="643" y="214" as="targetPoint"/>
                    </mxGeometry>
                </mxCell>
                <mxCell id="66" value="&lt;b&gt;ip: 10.43.0.0/24&lt;/b&gt;" style="text;html=1;strokeColor=none;fillColor=none;align=center;verticalAlign=middle;whiteSpace=wrap;rounded=0;labelBackgroundColor=none;strokeWidth=3;fontColor=#000000;" vertex="1" parent="1">
                    <mxGeometry x="130" y="55" width="91.55" height="30" as="geometry"/>
                </mxCell>
            </root>
        </mxGraphModel>
    </diagram>
</mxfile>